# xmcd
#
# Track frame offsets: 
#        150
#        28408
#        49865
#        75977
#        95960
#        113130
#        144560
#        166463
#        190760
#        207708
#
# Disc length: 3030 seconds
#
# Revision: 0
# Processed by: cddbd v1.5.2PL0 Copyright (c) Steve Scherf et al.
# Submitted via: ExactAudioCopy v1.0b3
#
DISCID=910bd40a
DTITLE=Phuong Mai, Tuan Vu, Tuan Anh - Con Thuyen Khong Ben
DYEAR=1995
DGENRE=
TTITLE0=Phuong Mai - Con thuyen khong ben
TTITLE1=Tuan Vu - Tinh chi dep
TTITLE2=Tuan Anh - Tinh nhu may khoi
TTITLE3=Phuong Mai - Tua canh beo troi
TTITLE4=Tuan Vu - Ngo ngang
TTITLE5=Tuan Anh - Han tinh trong mua
TTITLE6=Phuong Mai - Quan nua khuya
TTITLE7=Tuan Vu - Mai Le Xuan
TTITLE8=Phuong Mai - Buc tam thu
TTITLE9=Tuan Vu - Phien khuc chieu mua
EXTD=
EXTT0=
EXTT1=
EXTT2=
EXTT3=
EXTT4=
EXTT5=
EXTT6=
EXTT7=
EXTT8=
EXTT9=
PLAYORDER=
